<svg xmlns="http://www.w3.org/2000/svg" version="1.1" xmlns:xlink="http://www.w3.org/1999/xlink" xmlns:svgjs="http://svgjs.dev/svgjs" width="1440" height="560" preserveAspectRatio="none" viewBox="0 0 1440 560"><g mask="url(&quot;#SvgjsMask1622&quot;)" fill="none"><rect width="1440" height="560" x="0" y="0" fill="url(&quot;#SvgjsLinearGradient1623&quot;)"></rect><path d="M 0,55 C 57.6,81.8 172.8,177.6 288,189 C 403.2,200.4 460.8,119.2 576,112 C 691.2,104.8 748.8,172.2 864,153 C 979.2,133.8 1036.8,-2 1152,16 C 1267.2,34 1382.4,197.6 1440,243L1440 560L0 560z" fill="rgba(83, 144, 208, 1)"></path><path d="M 0,551 C 96,503.2 288,337.8 480,312 C 672,286.2 768,403.6 960,422 C 1152,440.4 1344,407.6 1440,404L1440 560L0 560z" fill="rgba(120, 173, 231, 1)"></path></g><defs><mask id="SvgjsMask1622"><rect width="1440" height="560" fill="#ffffff"></rect></mask><linearGradient x1="15.28%" y1="-39.29%" x2="84.72%" y2="139.29%" gradientUnits="userSpaceOnUse" id="SvgjsLinearGradient1623"><stop stop-color="#0e2a47" offset="0"></stop><stop stop-color="rgba(115, 176, 200, 1)" offset="0.64"></stop><stop stop-color="rgba(115, 176, 200, 1)" offset="1"></stop></linearGradient></defs></svg>